<svg width="18" height="9" viewBox="0 0 18 9" fill="none" xmlns="http://www.w3.org/2000/svg">
<path d="M9.34074 0.536342V8.87634H7.97274V3.16434L5.42874 8.87634H4.48074L1.92474 3.16434V8.87634H0.556738V0.536342H2.03274L4.96074 7.07634L7.87674 0.536342H9.34074ZM15.6028 4.59234C16.0508 4.67234 16.4308 4.90834 16.7428 5.30034C17.0548 5.69234 17.2108 6.13634 17.2108 6.63234C17.2108 7.05634 17.0988 7.44034 16.8748 7.78434C16.6588 8.12034 16.3428 8.38834 15.9268 8.58834C15.5108 8.78034 15.0268 8.87634 14.4748 8.87634H11.1388V0.536342H14.3188C14.8868 0.536342 15.3748 0.632342 15.7828 0.824343C16.1908 1.01634 16.4988 1.27634 16.7068 1.60434C16.9148 1.92434 17.0188 2.28434 17.0188 2.68434C17.0188 3.16434 16.8908 3.56434 16.6348 3.88434C16.3788 4.20434 16.0348 4.44034 15.6028 4.59234ZM12.5068 4.04034H14.1988C14.6468 4.04034 14.9948 3.94034 15.2428 3.74034C15.4988 3.53234 15.6268 3.23634 15.6268 2.85234C15.6268 2.47634 15.4988 2.18434 15.2428 1.97634C14.9948 1.76034 14.6468 1.65234 14.1988 1.65234H12.5068V4.04034ZM14.3548 7.76034C14.8188 7.76034 15.1828 7.64834 15.4468 7.42434C15.7108 7.20034 15.8428 6.88834 15.8428 6.48834C15.8428 6.08034 15.7028 5.75634 15.4228 5.51634C15.1428 5.27634 14.7708 5.15634 14.3068 5.15634H12.5068V7.76034H14.3548Z" fill="url(#paint0_linear_309_2)"/>
<defs>
<linearGradient id="paint0_linear_309_2" x1="18.2271" y1="4.87634" x2="-0.772949" y2="4.87634" gradientUnits="userSpaceOnUse">
<stop stop-color="#85EDFE"/>
<stop offset="1" stop-color="#6AAEFF"/>
</linearGradient>
</defs>
</svg>
